<?xml version="1.0" standalone="no"?>
<!DOCTYPE svg PUBLIC "-//W3C//DTD SVG 20010904//EN"
 "http://www.w3.org/TR/2001/REC-SVG-20010904/DTD/svg10.dtd">
<svg version="1.0" xmlns="http://www.w3.org/2000/svg"
 width="35px" height="70px" viewBox="0 0 376.000000 192.000000"
 preserveAspectRatio="xMidYMid meet">

<g transform="translate(0.000000,192.000000) scale(0.100000,-0.100000)"
fill="#80A4ED" stroke="none">
<path d="M835 1608 c-3 -7 -4 -148 -3 -313 l3 -300 200 0 c223 0 266 9 320 65
24 25 30 41 33 93 4 57 1 66 -23 95 -15 18 -43 41 -62 50 l-34 18 45 31 c96
68 83 186 -27 246 -39 20 -58 22 -245 25 -161 3 -203 1 -207 -10z m305 -117
c14 -4 31 -19 39 -33 13 -23 13 -29 -2 -52 -16 -24 -23 -26 -82 -26 l-65 0 0
53 c0 30 3 57 7 60 8 9 70 7 103 -2z m32 -268 c24 -21 23 -58 -2 -83 -16 -16
-33 -20 -80 -20 l-60 0 0 60 0 60 62 0 c43 0 67 -5 80 -17z"/>
<path d="M1467 1613 c-9 -8 -9 -586 -1 -607 5 -14 37 -16 249 -16 270 0 255
-4 255 70 0 72 4 70 -161 70 l-149 0 0 55 0 54 93 3 92 3 3 53 c4 75 -4 82
-104 82 l-84 0 0 50 0 50 138 0 c94 0 142 4 150 12 7 7 12 38 12 70 l0 58
-243 0 c-134 0 -247 -3 -250 -7z"/>
<path d="M2042 1308 l3 -313 73 -3 72 -3 0 201 c0 110 3 200 8 200 4 0 34 -85
66 -188 33 -103 64 -193 69 -200 7 -9 29 -12 66 -10 l55 3 67 205 67 205 3
-205 4 -205 92 -3 c89 -3 93 -2 98 20 3 13 4 154 3 313 l-3 290 -140 0 -140 0
-42 -139 c-23 -76 -44 -141 -47 -143 -2 -3 -26 61 -52 141 l-47 146 -139 0
-138 0 2 -312z"/>
<path d="M2839 907 c-155 -44 -238 -161 -239 -338 0 -154 54 -257 165 -314 54
-27 67 -30 159 -30 90 0 107 3 158 28 114 56 171 159 171 312 0 153 -60 261
-176 318 -67 33 -170 43 -238 24z m208 -62 c53 -22 108 -79 134 -139 33 -73
33 -209 0 -283 -47 -107 -137 -158 -268 -152 -97 5 -163 35 -210 97 -41 54
-57 109 -57 197 0 116 30 187 106 248 68 55 205 69 295 32z"/>
<path d="M2850 752 c-39 -40 -53 -99 -48 -212 3 -78 8 -102 26 -133 31 -49 84
-66 139 -46 58 22 83 79 83 192 0 166 -33 227 -122 227 -41 0 -54 -5 -78 -28z
m103 -21 c16 -6 29 -23 37 -45 12 -38 15 -200 4 -232 -20 -55 -71 -70 -115
-35 -22 17 -24 29 -28 111 -4 113 4 156 34 186 27 27 33 28 68 15z"/>
<path d="M367 889 c-14 -19 -6 -48 89 -332 57 -171 108 -315 114 -321 16 -16
193 -14 213 2 9 8 62 153 119 323 82 246 101 313 92 327 -9 13 -28 18 -87 20
-42 2 -85 -2 -95 -7 -13 -7 -31 -56 -62 -165 -24 -86 -46 -156 -50 -156 -4 0
-26 66 -50 147 -24 81 -52 155 -62 165 -15 15 -35 18 -112 18 -85 0 -96 -2
-109 -21z m223 -131 c18 -57 43 -141 57 -188 29 -96 44 -120 66 -101 8 6 39
97 68 201 l54 190 59 0 c42 0 57 -3 54 -12 -3 -7 -47 -138 -97 -290 l-93 -278
-78 0 c-65 0 -79 3 -85 18 -14 32 -185 547 -185 554 0 5 34 8 75 8 l74 0 31
-102z"/>
<path d="M1038 899 c-17 -9 -18 -36 -18 -328 0 -284 2 -320 17 -332 22 -19
184 -19 206 0 15 12 17 48 17 330 0 233 -3 320 -12 329 -15 15 -185 16 -210 1z
m172 -329 l0 -290 -70 0 -70 0 0 290 0 290 70 0 70 0 0 -290z"/>
<path d="M1317 892 c-15 -16 -17 -54 -17 -323 0 -244 3 -309 14 -324 17 -24
128 -33 166 -13 24 13 25 17 30 147 l5 133 103 -140 c62 -85 111 -142 125
-146 34 -9 113 -7 141 4 l26 10 0 323 c0 238 -3 326 -12 335 -16 16 -149 16
-171 0 -14 -11 -17 -35 -19 -133 l-3 -120 -89 123 c-49 67 -97 127 -107 132
-10 6 -53 10 -97 10 -64 0 -82 -4 -95 -18z m285 -187 c60 -82 113 -152 119
-153 5 -2 16 2 24 8 12 10 15 42 15 156 l0 144 50 0 50 0 0 -289 0 -289 -55
-4 -55 -3 -121 162 c-66 90 -125 165 -130 169 -6 3 -16 0 -24 -6 -12 -10 -15
-44 -15 -166 l0 -154 -55 0 -55 0 0 290 0 291 72 -3 72 -3 108 -150z"/>
<path d="M1966 894 c-14 -13 -16 -57 -16 -323 0 -249 3 -311 14 -327 30 -41
338 -27 440 19 136 62 205 207 178 369 -15 86 -47 145 -105 190 -85 68 -167
88 -369 88 -102 0 -130 -3 -142 -16z m346 -45 c156 -33 239 -147 225 -308 -10
-114 -52 -182 -141 -229 -49 -26 -59 -27 -223 -30 l-173 -4 0 291 0 291 130 0
c71 0 153 -5 182 -11z"/>
<path d="M2154 757 c-2 -7 -3 -98 -2 -202 l3 -190 57 1 c114 2 170 71 170 208
-1 96 -27 147 -94 182 -34 18 -127 19 -134 1z m125 -52 c16 -8 34 -29 42 -47
20 -46 17 -145 -5 -186 -17 -34 -66 -62 -106 -62 -19 0 -20 6 -20 155 l0 155
30 0 c17 0 44 -7 59 -15z"/>
</g>
</svg>
